<?xml version="1.0" encoding="UTF-8" standalone="no"?>
<svg width="1403px" height="1402px" viewBox="0 0 1403 1402" version="1.1" xmlns="http://www.w3.org/2000/svg" xmlns:xlink="http://www.w3.org/1999/xlink">
    <!-- Generator: Sketch 42 (36781) - http://www.bohemiancoding.com/sketch -->
    <title>Group</title>
    <desc>Created with Sketch.</desc>
    <defs>
        <polygon id="path-1" points="0.005 1418.8 1402.855 1418.8 1402.855 17.145 0.005 17.145 0.005 1418.8"></polygon>
    </defs>
    <g id="Page-1" stroke="none" stroke-width="1" fill="none" fill-rule="evenodd">
        <g id="Artboard" transform="translate(-305.000000, -189.000000)">
            <g id="Group" transform="translate(305.000000, 172.000000)">
                <g id="Group-3">
                    <mask id="mask-2" fill="white">
                        <use xlink:href="#path-1"></use>
                    </mask>
                    <g id="Clip-2"></g>
                    <path d="M1216.8,754.9 C1201.4,775.44 1104.38,905.46 990.34,1018.98 L990.28,1019.04 C876.76,1133.08 761.3,1219.34 740.78,1234.74 L740.42,1234.96 C719.12,1252.6 683.76,1251.84 662.04,1234.96 C641.5,1219.56 520.66,1127.92 407.14,1013.88 L407.08,1013.82 C293.04,900.3 201.4,779.46 186,758.92 L186.04,758.88 C168.4,737.6 169.16,702.24 186.04,680.52 C201.44,659.98 293.08,539.14 407.12,425.62 L407.18,425.56 C520.7,311.52 641.54,219.88 662.08,204.48 C683.8,187.58 719.16,186.84 740.44,204.48 L740.5,204.44 C761.02,219.84 881.86,311.48 995.38,425.52 L995.44,425.58 C1109.5,539.1 1201.38,663.5 1216.76,684.02 L1216.8,684.14 C1234.44,705.44 1233.7,733.18 1216.8,754.9 Z M1376.44,673.2 C1324.9,625.98 1165.3,522.02 1031.66,388.38 C899.06,255.78 793.32,95.1 746.8,43.56 C711.58,8.34 691.26,8.34 656.04,43.56 C609.48,95.1 503.8,255.78 371.2,388.38 C237.54,522.02 77.94,630.18 26.42,673.2 C-8.8,708.42 -8.8,728.74 26.42,763.96 C77.94,809.86 238.62,916.2 371.22,1048.8 C504.88,1182.46 609.54,1342.06 656.04,1393.58 C691.26,1428.8 711.58,1428.8 746.8,1393.58 C792.7,1342.06 897.98,1182.46 1031.64,1048.8 C1164.22,916.2 1325.96,806.36 1376.44,763.96 C1411.66,728.74 1411.66,708.42 1376.44,673.2 L1376.44,673.2 Z" id="Fill-1" fill="#196893" mask="url(#mask-2)"></path>
                </g>
                <path d="M687.92,829 C526.94,829 396.74,777.18 396.42,713.26 C396.2,669.4 457.52,631.26 548.38,611.64 L617.54,656.14 C546.76,668.86 498.28,694.78 498.28,724.68 C498.28,767.14 596.02,801.56 716.58,801.56 C820.14,801.56 936.4,767.14 936.4,724.68 C935.88,697.94 904.92,682.44 874.84,667.48 L833.6,676.9 L811.86,616.88 L945.74,649.6 L915.54,657.28 C915.54,657.28 966.62,683.74 977.5,713.26 C998.78,777.64 859.16,829 687.92,829 Z M655.26,1060.46 L664.72,841.76 C679.62,844.26 724.76,843.92 739.7,841.6 L749.62,1060.46 C724.84,1067.1 678.96,1065.94 655.26,1060.46 Z M700.3,348.28 L777.72,571.74 L726.08,571.72 L735.7,784.46 C709.96,788.92 691.14,788.02 665.84,784.08 L675.02,571.72 L622.26,571.72 L700.3,348.28 Z M1179.68,686.7 C1165.38,667.64 1080.12,552.2 974.28,446.84 L974.22,446.78 C868.88,340.96 756.74,255.92 737.68,241.62 L737.64,241.66 L737.26,241.28 C717.5,224.9 685.06,225.98 664.9,241.66 C645.86,255.96 533.72,341 428.36,446.82 L428.3,446.88 C322.48,552.24 237.44,664.38 223.14,683.44 C207.46,703.58 206.78,736.4 223.14,756.16 L223.12,756.2 C237.4,775.26 322.44,887.4 428.26,992.74 L428.34,992.8 C533.68,1098.64 645.82,1183.68 664.88,1197.96 C685.04,1213.64 717.84,1214.34 737.6,1197.96 L737.94,1197.76 C757,1183.48 864.14,1103.44 969.48,997.6 L969.56,997.54 C1075.38,892.2 1165.42,771.52 1179.7,752.46 C1195.38,732.3 1196.08,706.56 1179.7,686.8 L1179.68,686.7 L1179.68,686.7 Z" id="Fill-4" fill="#196893"></path>
            </g>
        </g>
    </g>
</svg>